<svg width="1280" height="720" xmlns="http://www.w3.org/2000/svg" xmlns:xlink="http://www.w3.org/1999/xlink" overflow="hidden"><g><rect x="0" y="0" width="1280" height="720" fill="#FFFFFF"/><text fill="#8439BD" font-family="Speak Pro,Speak Pro_MSFontService,sans-serif" font-weight="400" font-size="11" transform="translate(1239.88 692)">15</text><text fill="#1D428A" font-family="Avenir Next LT Pro Light,Avenir Next LT Pro Light_MSFontService,sans-serif" font-weight="300" font-size="24" transform="translate(77.4986 172)">A CNCF</text><text fill="#1D428A" font-family="Avenir Next LT Pro Light,Avenir Next LT Pro Light_MSFontService,sans-serif" font-weight="300" font-size="16" transform="translate(166.232 165)">2</text><text fill="#1D428A" font-family="Avenir Next LT Pro Light,Avenir Next LT Pro Light_MSFontService,sans-serif" font-weight="300" font-size="24" transform="translate(181.399 172)">define a computação nativa de nuvem como o uso de software de código aberto,</text><text fill="#1D428A" font-family="Avenir Next LT Pro Light,Avenir Next LT Pro Light_MSFontService,sans-serif" font-weight="300" font-size="24" transform="translate(101.499 198)">tecnologias como contêineres, micro serviços e malhas de serviços, para desenvolver e implantar</text><text fill="#1D428A" font-family="Avenir Next LT Pro Light,Avenir Next LT Pro Light_MSFontService,sans-serif" font-weight="300" font-size="24" transform="translate(101.499 224)">aplicativos escalonáveis em plataformas de computação na nuvem</text><text fill="#181818" font-family="Avenir Next LT Pro Light,Avenir Next LT Pro Light_MSFontService,sans-serif" font-weight="300" font-size="16" transform="translate(822.032 224)">.</text><text font-family="Avenir Next LT Pro Light,Avenir Next LT Pro Light_MSFontService,sans-serif" font-weight="300" font-size="12" transform="translate(70.4723 639)">1</text><text font-family="Avenir Next LT Pro Light,Avenir Next LT Pro Light_MSFontService,sans-serif" font-weight="300" font-size="12" transform="translate(80.3057 639)">–</text><text font-family="Avenir Next LT Pro Light,Avenir Next LT Pro Light_MSFontService,sans-serif" font-weight="300" font-size="12" transform="translate(88.139 639)">As part of the Linux Foundation, CNCF is the open source, vendor</text><text font-family="Avenir Next LT Pro Light,Avenir Next LT Pro Light_MSFontService,sans-serif" font-weight="300" font-size="12" transform="translate(445.639 639)">-</text><text font-family="Avenir Next LT Pro Light,Avenir Next LT Pro Light_MSFontService,sans-serif" font-weight="300" font-size="12" transform="translate(449.472 639)">neutral hub of cloud native computing, hosting projects lik</text><text font-family="Avenir Next LT Pro Light,Avenir Next LT Pro Light_MSFontService,sans-serif" font-weight="300" font-size="12" transform="translate(767.139 639)">e Kubernetes and Prometheus to make cloud native universal and sustainable,</text><text fill="#00B0F0" font-family="Avenir Next LT Pro Light,Avenir Next LT Pro Light_MSFontService,sans-serif" font-weight="300" font-size="12" transform="translate(70.4723 654)">https://www.cncf.io/</text><path d="M70.4723 655.142 180.472 655.142 180.472 656.142 70.4723 656.142Z" fill="#00B0F0" fill-rule="evenodd"/><rect x="0" y="252" width="1280" height="328" fill="#F2F2F2"/><path d="M136.475 397.41 132.559 397.41 131.884 399 131 399 134.071 392 134.929 392 138 399 137.149 399ZM136.15 396.655 134.503 392.992 132.883 396.669Z" fill="#4868E5" fill-rule="evenodd"/><path d="M140 392 143.15 392C144.752 392 146 392.924 146 394.243 146 395.561 144.752 396.485 143.15 396.485L140.895 396.485 140.895 399 140 399ZM143.007 395.731C144.271 395.731 145.128 395.181 145.128 394.243 145.128 393.305 144.233 392.754 142.993 392.754L140.88 392.754 140.88 395.711Z" fill="#4868E5" fill-rule="evenodd"/><path d="M147 392 150.15 392C151.752 392 153 392.924 153 394.243 153 395.561 151.752 396.485 150.15 396.485L147.895 396.485 147.895 399 147 399ZM150.007 395.731C151.271 395.731 152.128 395.181 152.128 394.243 152.128 393.305 151.271 392.754 150.007 392.754L147.88 392.754 147.88 395.711Z" fill="#4868E5" fill-rule="evenodd"/><path d="M169.993 430 162.624 430 162.624 428.158 169.993 428.158ZM158.94 430 151.572 430 151.572 428.158 158.94 428.158ZM147.887 430 140.519 430 140.519 428.158 147.887 428.158ZM136.835 430 129.466 430 129.466 428.158 136.835 428.158ZM125.782 430 118.414 430 118.414 428.158 125.782 428.158ZM114.729 430 107 430 107 428.527 107.921 428.527 107.921 428.166 114.729 428.166ZM177 429.418 175.158 429.418 175.158 427.797 177 427.797ZM108.842 424.836 107 424.836 107 417.469 108.842 417.469ZM177 424.099 175.158 424.099 175.158 416.732 177 416.732ZM108.842 413.786 107 413.786 107 406.419 108.842 406.419ZM177 413.049 175.158 413.049 175.158 405.682 177 405.682ZM108.842 402.735 107 402.735 107 395.368 108.842 395.368ZM177 401.999 175.158 401.999 175.158 394.632 177 394.632ZM108.842 391.685 107 391.685 107 384.318 108.842 384.318ZM177 390.948 175.158 390.948 175.158 383.581 177 383.581ZM108.842 380.635 107 380.635 107 373.268 108.842 373.268ZM177 379.898 175.158 379.898 175.158 372.531 177 372.531ZM108.842 369.584 107 369.584 107 362.217 108.842 362.217ZM177 368.848 175.158 368.848 175.158 361.481 177 361.481ZM172.955 361.842 165.586 361.842 165.586 360 172.955 360ZM161.902 361.842 154.534 361.842 154.534 360 161.902 360ZM150.849 361.842 143.481 361.842 143.481 360 150.849 360ZM139.797 361.842 132.428 361.842 132.428 360 139.797 360ZM128.744 361.842 121.376 361.842 121.376 360 128.744 360ZM117.692 361.842 110.323 361.842 110.323 360 117.692 360Z" fill="#4868E5" fill-rule="evenodd"/><path d="M164.5 417.182 158.279 410.908 158.023 411.16C158.34 410.677 158.511 410.112 158.513 409.532L158.513 382.157C158.511 381.776 158.437 381.4 158.294 381.047L164.507 374.825 165.655 376.024 167 371.044 162.066 372.324 163.221 373.501 157.117 379.642C156.66 379.355 156.134 379.201 155.596 379.198L128.549 379.198C128.225 379.201 127.904 379.258 127.598 379.368L121.779 373.508 122.934 372.324 118 371 119.33 376.024 120.493 374.847 126.122 380.463C125.792 380.954 125.617 381.534 125.617 382.128L125.617 409.503C125.621 410.17 125.848 410.817 126.26 411.337L120.493 417.182 119.33 415.976 118 420.963 122.934 419.676 121.779 418.492 127.832 412.395C128.071 412.46 128.316 412.492 128.563 412.492L155.611 412.492C156.186 412.491 156.748 412.318 157.226 411.996L157.007 412.218 163.235 418.492 162.058 419.676 166.993 421 165.662 415.976ZM156.685 409.532C156.685 410.145 156.194 410.642 155.589 410.642L128.541 410.642C127.936 410.642 127.445 410.145 127.445 409.532L127.445 382.157C127.445 381.544 127.936 381.047 128.541 381.047L155.589 381.047C156.194 381.047 156.685 381.544 156.685 382.157Z" fill="#4868E5" fill-rule="evenodd"/><text fill="#1D428A" font-family="Avenir Next LT Pro Light,Avenir Next LT Pro Light_MSFontService,sans-serif" font-weight="700" font-size="19" transform="translate(88.569 454)">Contêineres</text><path d="M322.185 365.684C323.929 365.684 325.342 367.12 325.342 368.891L325.342 423.109C325.342 424.88 323.929 426.316 322.185 426.316L268.815 426.316C267.071 426.316 265.658 424.88 265.658 423.109L265.658 368.891C265.658 367.12 267.071 365.684 268.815 365.684L322.185 365.684M322.185 364 268.815 364C266.155 364 264 366.19 264 368.891L264 423.109C264 425.811 266.155 428 268.815 428L322.185 428C324.845 428 327 425.811 327 423.109L327 368.891C327 366.19 324.845 364 322.185 364Z" fill="#4868E5" fill-rule="evenodd"/><path d="M288.752 387 278.248 387 273 396.5 278.248 406 285.599 406 285.599 404.274 279.207 404.274 274.91 396.5 279.207 388.726 287.793 388.726 292.09 396.5 287.793 404.274 287.78 404.274 287.78 406 288.752 406 294 396.5 288.752 387Z" fill="#4868E5" fill-rule="evenodd"/><path d="M309.752 375 299.255 375 294 384.003 299.255 393 306.605 393 306.605 391.364 300.207 391.364 295.91 384.003 300.207 376.636 308.8 376.636 313.096 384.003 308.8 391.364 308.787 391.364 308.787 393 309.752 393 315 384.003 309.752 375Z" fill="#4868E5" fill-rule="evenodd"/><path d="M309.752 399 299.255 399 294 408.003 299.255 417 306.533 417 306.533 415.364 300.207 415.364 295.91 408.003 300.207 400.636 308.8 400.636 313.096 408.003 308.8 415.364 308.714 415.364 308.714 417 309.752 417 315 408.003 309.752 399Z" fill="#4868E5" fill-rule="evenodd"/><text fill="#1D428A" font-family="Avenir Next LT Pro Light,Avenir Next LT Pro Light_MSFontService,sans-serif" font-weight="700" font-size="19" transform="translate(235.867 451)">Micro serviços</text><path d="M447.439 410.637 443.561 410.637 442.885 412 442 412 445.068 406 445.926 406 449 412 448.155 412ZM447.115 409.99 445.5 406.839 443.885 409.99Z" fill="#4868E5" fill-rule="evenodd"/><path d="M451 406 453.625 406C454.96 406 456 406.923 456 408.241 456 409.558 454.96 410.488 453.625 410.488L451.746 410.488 451.746 413 451 413ZM453.506 409.727C454.559 409.727 455.273 409.178 455.273 408.241 455.273 407.304 454.534 406.754 453.494 406.754L451.733 406.754 451.733 409.727Z" fill="#4868E5" fill-rule="evenodd"/><path d="M457 406 460.15 406C461.752 406 463 406.923 463 408.241 463 409.558 461.752 410.488 460.15 410.488L457.895 410.488 457.895 413 457 413ZM460.007 409.727C461.271 409.727 462.128 409.178 462.128 408.241 462.128 407.304 461.271 406.754 460.007 406.754L457.88 406.754 457.88 409.727Z" fill="#4868E5" fill-rule="evenodd"/><path d="M472.662 380.411 469.32 380.411 468.741 382 468 382 470.629 375 471.371 375 474 382 473.265 382ZM472.384 379.658 471.006 375.978 469.616 379.658Z" fill="#4868E5" fill-rule="evenodd"/><path d="M476 375 478.619 375C479.954 375 481 375.927 481 377.232 481 378.537 479.954 379.491 478.619 379.491L476.739 379.491 476.739 382 476 382ZM478.506 378.713C479.559 378.713 480.273 378.165 480.273 377.232 480.273 376.299 479.559 375.751 478.506 375.751L476.752 375.751 476.752 378.713Z" fill="#4868E5" fill-rule="evenodd"/><path d="M483 375 485.619 375C486.954 375 488 375.927 488 377.232 488 378.537 486.954 379.491 485.619 379.491L483.739 379.491 483.739 382 483 382ZM485.506 378.713C486.559 378.713 487.273 378.165 487.273 377.232 487.273 376.299 486.565 375.751 485.488 375.751L483.733 375.751 483.733 378.713Z" fill="#4868E5" fill-rule="evenodd"/><path d="M492.799 363.027 486.254 363.027 486.254 364.708 492.799 364.708 492.799 363.027ZM482.981 363.027 476.436 363.027 476.436 364.708 482.981 364.708 482.981 363.027ZM473.163 363.027 466.617 363.027 466.617 364.708 473.163 364.708 473.163 363.027ZM463.345 363.027 463.194 363.027C461.43 363.027 460 364.496 460 366.309 460 366.311 460 366.314 460 366.316L460 367.728 461.636 367.728 461.636 366.316C461.636 365.431 462.333 364.712 463.194 364.708L463.345 364.708 463.345 363.027ZM461.636 371.098 460 371.098 460 377.824 461.636 377.824 461.636 371.098ZM461.636 381.187 460 381.187 460 387.913 461.636 387.913 461.636 381.187ZM461.636 391.276 460 391.276 460 396.738 460 396.738 460 396.738 460 396.738 460 397.108 460 397.108C460 397.108 460 397.155 460 397.182L460 397.182C460.04 397.412 460.103 397.638 460.19 397.854L461.708 397.229C461.632 397.037 461.595 396.831 461.597 396.624L461.597 391.27ZM462.468 398.319 462.199 399.98 468.745 399.98 468.745 398.298 462.723 398.298C462.638 398.305 462.553 398.305 462.468 398.298ZM479.034 398.319 472.489 398.319 472.489 400 479.034 400 479.034 398.319ZM488.852 398.319 482.307 398.319 482.307 400 488.852 400 488.852 398.319ZM496 395.843 494.364 395.843 494.364 396.711C494.36 397.597 493.662 398.315 492.799 398.319L492.145 398.319 492.145 400 492.799 400C494.567 400 496 398.527 496 396.711L496 395.864ZM496 385.754 494.364 385.754 494.364 392.48 496 392.48 496 385.754ZM496 375.665 494.364 375.665 494.364 382.391 496 382.391 496 375.665ZM495.922 365.576 494.324 365.939C494.351 366.054 494.364 366.171 494.364 366.289L494.364 372.295 496 372.295 496 366.316 496 366.316C496 366.202 496 366.094 495.954 365.98L495.954 365.98ZM492.799 363 492.799 364.681C492.971 364.684 493.141 364.713 493.303 364.769L493.834 363.175C493.591 363.093 493.341 363.039 493.087 363.013L492.799 363.013Z" fill="#4868E5" fill-rule="evenodd"/><path d="M467.71 389.682C468.598 389.682 469.318 390.402 469.318 391.29L469.318 421.71C469.318 422.598 468.598 423.318 467.71 423.318L437.29 423.318C436.402 423.318 435.682 422.598 435.682 421.71L435.682 391.29C435.682 390.402 436.402 389.682 437.29 389.682L467.71 389.682M467.71 388 437.29 388C435.473 388 434 389.473 434 391.29L434 421.71C434 423.527 435.473 425 437.29 425L467.71 425C469.527 425 471 423.527 471 421.71L471 391.29C471 389.473 469.527 388 467.71 388Z" fill="#4868E5" fill-rule="evenodd"/><text fill="#1D428A" font-family="Avenir Next LT Pro Light,Avenir Next LT Pro Light_MSFontService,sans-serif" font-weight="700" font-size="19" transform="translate(402.608 449)">Escalonamento</text><text fill="#1D428A" font-family="Avenir Next LT Pro Light,Avenir Next LT Pro Light_MSFontService,sans-serif" font-weight="700" font-size="19" transform="translate(424.355 471)">Horizontal</text><path d="M793 396.596 791.873 395.356 784.552 402.672 784.766 403.188C786.318 406.923 784.546 411.208 780.808 412.759 779.46 413.318 777.976 413.462 776.546 413.173L779.955 409.767 778.747 405.267 774.231 404.053 770.822 407.46C770.008 403.498 772.562 399.627 776.527 398.814 777.97 398.518 779.468 398.664 780.827 399.232L781.344 399.446 792.611 388.18 791.423 387 780.928 397.488C776.223 395.875 771.101 398.379 769.487 403.08 768.786 405.122 768.843 407.348 769.647 409.351L770.117 410.531 774.734 405.938 777.378 406.608 778.049 409.244 773.446 413.877 774.627 414.347C779.237 416.202 784.479 413.971 786.335 409.364 787.144 407.357 787.201 405.127 786.497 403.081Z" fill="#4868E5" fill-rule="evenodd"/><path d="M823.352 365.478 822.878 364.333 818.269 368.809 815.64 368.119 814.933 365.562 819.523 361.086 818.349 360.631C813.764 358.835 808.554 361.004 806.713 365.476 805.913 367.42 805.856 369.58 806.554 371.561L796 381.834 797.181 382.985 808.522 371.958 808.308 371.457C806.767 367.832 808.531 363.676 812.248 362.173 813.582 361.633 815.051 361.493 816.467 361.769L813.078 365.074 814.279 369.453 818.762 370.624 822.151 367.319C822.953 371.16 820.41 374.908 816.471 375.69 815.046 375.973 813.567 375.833 812.224 375.289L811.704 375.08 803.812 382.796 804.94 384 812.111 376.987C816.782 378.568 821.883 376.157 823.505 371.602 824.214 369.61 824.16 367.434 823.352 365.478Z" fill="#4868E5" fill-rule="evenodd"/><path d="M822.394 404.944 807.634 390.023 804.602 388.397C804.565 387.728 804.286 387.097 803.817 386.624L802.209 384.998C801.193 383.951 799.532 383.93 798.491 384.951L796.75 386.71 778.715 368.457 778.715 364.745 772.933 361 770 363.966 772.881 368.95C773.11 369.348 773.615 369.482 774.008 369.25 774.401 369.018 774.534 368.508 774.305 368.111L772.07 364.232 773.158 363.126 777.06 365.658 777.06 369.15 795.59 387.883 793.072 390.429C792.07 391.484 792.097 393.159 793.131 394.181L794.536 395.567 795.696 394.388 794.331 393.008C794.136 392.814 794.023 392.552 794.015 392.275 794.006 392.027 794.099 391.786 794.272 391.609L799.697 386.124C800.096 385.76 800.709 385.787 801.075 386.184L802.683 387.81C802.877 388.002 802.991 388.262 803 388.536 803.007 388.785 802.914 389.025 802.743 389.203L802.743 389.203 797.074 394.934C796.751 395.26 796.751 395.788 797.074 396.114 797.396 396.439 797.918 396.439 798.24 396.114L804.232 390.056 806.652 391.349 820.904 405.79 821.194 407.01 815.07 413.201 813.969 412.981 799.012 397.866C798.689 397.537 798.164 397.534 797.838 397.86 797.512 398.185 797.509 398.716 797.832 399.046L813.152 414.52 815.61 415 823 407.53Z" fill="#4868E5" fill-rule="evenodd"/><text fill="#1D428A" font-family="Avenir Next LT Pro Light,Avenir Next LT Pro Light_MSFontService,sans-serif" font-weight="700" font-size="19" transform="translate(739.348 441)">Implantações</text><text fill="#1D428A" font-family="Avenir Next LT Pro Light,Avenir Next LT Pro Light_MSFontService,sans-serif" font-weight="700" font-size="19" transform="translate(736.968 463)">Transparentes</text><text fill="#1D428A" font-family="Avenir Next LT Pro Light,Avenir Next LT Pro Light_MSFontService,sans-serif" font-weight="700" font-size="19" transform="translate(773.048 486)">“Zero</text><text fill="#1D428A" font-family="Avenir Next LT Pro Light,Avenir Next LT Pro Light_MSFontService,sans-serif" font-weight="700" font-size="19" transform="translate(752.181 508)">Downtime</text><text fill="#1D428A" font-family="Avenir Next LT Pro Light,Avenir Next LT Pro Light_MSFontService,sans-serif" font-weight="700" font-size="19" transform="translate(739.621 530)">Deployment”</text><path d="M987.211 402C982.589 402 978.132 400.608 974.418 397.905 973.262 397.168 972.272 396.267 971.364 395.202L973.014 393.81C973.84 394.792 974.665 395.448 975.738 396.185 979.122 398.642 983.166 399.952 987.293 399.952 998.105 399.952 1006.94 391.189 1006.94 380.459 1006.94 369.729 998.105 360.966 987.293 360.966 980.03 360.966 973.179 365.143 969.795 371.531 968.64 373.661 968.227 376.036 967.732 378.493 967.567 379.231 967.484 379.968 967.319 380.705 967.319 380.705 967.319 380.705 967.319 380.705L967.319 380.705C967.072 382.015 966.659 383.326 966.164 384.636 964.1 389.878 959.066 393.072 952.628 393.072 945.695 393.072 940 387.421 940 380.541 940 373.661 945.695 368.01 952.628 368.01 956.507 368.01 960.221 368.419 963.935 373.333 964.678 374.398 965.339 375.545 965.834 376.773 966.246 374.726 966.742 372.678 967.815 370.712 971.529 363.587 979.122 359 987.211 359 999.261 359 1009 368.665 1009 380.623 1009 392.253 999.261 402 987.211 402ZM952.628 369.893C946.85 369.893 942.146 374.562 942.146 380.295 942.146 386.029 946.85 390.697 952.628 390.697 958.075 390.697 962.367 388.076 964.1 383.653 964.513 382.671 964.761 381.606 965.008 380.541 964.678 379.394 963.77 376.364 962.202 374.316 959.148 370.221 956.177 369.893 952.628 369.893Z" fill="#4868E5" fill-rule="evenodd"/><path d="M952.763 402C952.763 402 952.763 402 952.763 402 940.81 402 931 392.102 931 379.958 931 367.815 940.728 358 952.763 358 958.781 358 962.903 358.998 968.674 364.654L967.19 366.234C961.996 361.078 958.369 360.163 952.846 360.163 942.047 360.163 933.226 369.062 933.226 379.958 933.226 390.855 942.047 399.754 952.846 399.754 952.846 399.754 952.846 399.754 952.846 399.754 958.946 399.754 964.964 397.093 968.509 392.767 971.229 389.44 972.384 385.614 973.538 381.539 974.197 379.376 974.857 377.214 975.763 375.051 977.742 370.393 982.358 367.233 987.387 367.233 994.312 367.233 1000 372.972 1000 379.958 1000 386.945 994.312 392.684 987.387 392.684 983.925 392.684 980.545 391.187 978.154 388.609L976.505 386.945 978.072 385.448 979.72 387.195C981.699 389.357 984.502 390.605 987.387 390.605 993.158 390.605 997.857 385.864 997.857 380.042 997.857 374.219 993.158 369.478 987.387 369.478 983.183 369.478 979.308 372.057 977.742 375.966 976.918 378.045 976.258 380.208 975.599 382.287 974.362 386.363 973.125 390.605 970.158 394.265 966.118 399.006 959.523 402 952.763 402Z" fill="#4868E5" fill-rule="evenodd"/><path d="M974.972 380C974.631 380 974.205 379.826 974.035 379.477L971.651 375.646 967.65 377.823C967.139 378.084 966.458 377.91 966.117 377.387 965.862 376.865 966.032 376.168 966.543 375.82L971.481 373.12C971.992 372.859 972.588 373.033 972.928 373.555L975.823 378.258C976.163 378.781 975.993 379.477 975.482 379.826 975.397 379.913 975.142 380 974.972 380Z" fill="#4868E5" fill-rule="evenodd"/><path d="M985.446 370C985.278 370 985.11 370 984.942 369.915 984.439 369.658 984.188 368.975 984.439 368.463L986.452 364.534 982.51 362.057C982.007 361.715 981.839 361.032 982.174 360.519 982.51 360.007 983.181 359.836 983.684 360.178L988.465 363.082C988.968 363.423 989.136 364.021 988.885 364.534L986.452 369.402C986.201 369.829 985.781 370 985.446 370Z" fill="#4868E5" fill-rule="evenodd"/><path d="M1002.68 375C1002.59 375 1002.59 375 1002.5 375L996.976 374.285C996.362 374.195 995.923 373.658 996.011 373.032 996.099 372.406 996.625 371.959 997.327 372.049L1001.8 372.675 1002.77 367.934C1002.86 367.308 1003.47 366.861 1004.08 367.04 1004.7 367.129 1005.14 367.755 1004.96 368.381L1003.82 374.195C1003.64 374.553 1003.21 375 1002.68 375Z" fill="#4868E5" fill-rule="evenodd"/><path d="M997.318 395C996.811 395 996.389 394.642 996.22 394.106L995.038 388.471C994.869 387.845 995.291 387.219 995.882 387.04 996.473 386.861 997.064 387.308 997.233 387.934L998.247 392.496 1002.72 391.691C1003.31 391.601 1003.9 392.048 1003.99 392.675 1004.07 393.301 1003.65 393.927 1003.06 394.016L997.571 395C997.487 395 997.402 395 997.318 395Z" fill="#4868E5" fill-rule="evenodd"/><path d="M979.193 399C978.709 399 978.305 398.668 978.143 398.171L977.012 392.78C976.932 392.199 977.255 391.701 977.739 391.536L982.666 390.043C983.231 389.877 983.797 390.209 983.958 390.789 984.12 391.37 983.797 391.95 983.231 392.116L979.193 393.277 980.081 397.673C980.162 398.254 979.839 398.834 979.274 398.917 979.355 399 979.274 399 979.193 399Z" fill="#4868E5" fill-rule="evenodd"/><path d="M938.279 389C938.124 389 937.969 388.921 937.814 388.842L932 385.526 933.008 383.711 937.969 386.553 940.295 383 942 384.105 939.132 388.448C938.977 388.842 938.589 389 938.279 389Z" fill="#4868E5" fill-rule="evenodd"/><path d="M937.382 385C937.214 385 937.046 384.921 936.878 384.841L931 381.739 932.092 379.909 937.046 382.534 940.153 378 942 379.114 938.305 384.443C938.054 384.841 937.718 385 937.382 385Z" fill="#4868E5" fill-rule="evenodd"/><path d="M957.713 370 957.011 364.286C956.923 363.714 957.362 363.225 957.977 363.143L964.561 362 965 364.041 959.382 365.02 959.908 369.755 957.713 370Z" fill="#4868E5" fill-rule="evenodd"/><path d="M960.71 372 960.011 366.167C959.924 365.583 960.361 365.083 960.885 365L966.563 364 967 366.083 962.283 366.917 962.894 371.75 960.71 372Z" fill="#4868E5" fill-rule="evenodd"/><path d="M952.454 402 951 400.441 954.598 396.197 951.689 392.472 953.143 391 956.741 395.504C957.124 395.937 957.047 396.63 956.741 397.063L952.454 402Z" fill="#4868E5" fill-rule="evenodd"/><path d="M948.832 402 947.038 400.446 951.097 396.561 946 391.554 947.794 390 953.646 395.784C954.118 396.216 954.118 396.907 953.646 397.338L948.832 402Z" fill="#4868E5" fill-rule="evenodd"/><path d="M969.034 393 968.09 387.245 964.236 387.674 964 385.526 968.798 385.011C969.348 384.925 969.82 385.354 969.899 385.956L971 392.656 969.034 393Z" fill="#4868E5" fill-rule="evenodd"/><path d="M966.899 396 965.929 390.306 961.242 390.901 961 388.691 966.657 388.011C967.222 387.926 967.707 388.351 967.788 388.946L969 395.66 966.899 396Z" fill="#4868E5" fill-rule="evenodd"/><path d="M945.418 372 939.761 370.103C939.262 369.931 938.93 369.328 939.013 368.81L940.676 362 942.756 362.517 941.342 368.379 946 369.931 945.418 372Z" fill="#4868E5" fill-rule="evenodd"/><path d="M949.282 370 942.821 368.184C942.283 368.026 941.924 367.474 942.014 367L943.719 361 945.962 361.474 944.526 366.526 950 368.105 949.282 370Z" fill="#4868E5" fill-rule="evenodd"/><text fill="#1D428A" font-family="Avenir Next LT Pro Light,Avenir Next LT Pro Light_MSFontService,sans-serif" font-weight="700" font-size="19" transform="translate(912.036 439)">Integrações e</text><text fill="#1D428A" font-family="Avenir Next LT Pro Light,Avenir Next LT Pro Light_MSFontService,sans-serif" font-weight="700" font-size="19" transform="translate(912.756 461)">Implantações</text><text fill="#1D428A" font-family="Avenir Next LT Pro Light,Avenir Next LT Pro Light_MSFontService,sans-serif" font-weight="700" font-size="19" transform="translate(926.616 484)">Continuas</text><text fill="#1D428A" font-family="Avenir Next LT Pro Light,Avenir Next LT Pro Light_MSFontService,sans-serif" font-weight="700" font-size="19" transform="translate(937.256 506)">(CI/CD)</text><path d="M1133.66 382.299 1129.13 382.299 1128.37 384 1127 384 1130.78 376 1132.22 376 1136 384 1134.56 384 1133.66 382.299ZM1133.18 381.291 1131.4 377.512 1129.61 381.291 1133.18 381.291Z" fill="#4868E5" fill-rule="evenodd"/><path d="M1138 376 1141.18 376C1141.72 376 1142.2 376.127 1142.62 376.317 1143.04 376.571 1143.4 376.825 1143.64 377.27 1143.88 377.651 1144 378.095 1144 378.603 1144 379.111 1143.88 379.556 1143.64 379.937 1143.4 380.317 1143.04 380.635 1142.62 380.889 1142.2 381.143 1141.72 381.206 1141.18 381.206L1139.08 381.206 1139.08 384 1138 384 1138 376ZM1141.06 380.127C1141.6 380.127 1142.08 380 1142.38 379.746 1142.68 379.492 1142.92 379.111 1142.92 378.603 1142.92 378.159 1142.74 377.778 1142.38 377.46 1142.02 377.206 1141.6 377.079 1141.06 377.079L1139.14 377.079 1139.14 380.127 1141.06 380.127Z" fill="#4868E5" fill-rule="evenodd"/><path d="M1146 376 1148 376 1148 384 1146 384 1146 376Z" fill="#4868E5" fill-rule="evenodd"/><path d="M1138.31 398C1136.02 398 1133.65 397.545 1131.36 396.57 1130.96 396.376 1130.77 395.921 1130.9 395.531 1131.1 395.141 1131.55 394.946 1131.95 395.076 1140.08 398.52 1149.53 394.751 1153.01 386.694 1156.49 378.636 1152.68 369.28 1144.55 365.836 1140.61 364.146 1136.28 364.146 1132.28 365.706 1128.34 367.33 1125.26 370.319 1123.55 374.218 1123.35 374.608 1122.89 374.803 1122.5 374.673 1122.11 374.478 1121.91 374.023 1122.04 373.633 1123.88 369.345 1127.36 366.031 1131.75 364.276 1136.15 362.522 1140.94 362.587 1145.27 364.406 1154.26 368.175 1158.39 378.506 1154.59 387.409 1151.7 394.036 1145.14 398 1138.31 398Z" fill="#4868E5" fill-rule="evenodd"/><path d="M1142.39 410 1133.35 410C1133.03 410 1132.77 409.806 1132.65 409.549 1132.32 408.839 1132 407.871 1131.68 406.452 1131.42 405.29 1131.16 404.452 1131.03 403.871 1127.74 402.452 1126.52 401.871 1126 401.613 1125.35 401.871 1124.58 402.258 1123.68 402.774 1122.39 403.548 1121.55 404.065 1121.03 404.323 1120.77 404.452 1120.52 404.387 1120.26 404.258 1119.42 403.678 1117.23 401.613 1113.61 397.936 1113.42 397.742 1113.35 397.419 1113.42 397.161 1113.55 396.774 1113.94 395.742 1116.13 391.936 1116 391.548 1115.68 390.774 1115.03 389.419 1114.58 388.387 1114.26 387.419 1114.06 386.581 1113.35 386.452 1112.45 386.258 1111.48 386 1110.13 385.613 1109.16 385.355 1108.65 385.226 1108.26 385.161 1108 384.839 1108 384.452L1108 375.226C1108 374.839 1108.26 374.516 1108.65 374.452 1109.1 374.323 1110 374.065 1111.35 373.677 1112.32 373.419 1113.16 373.161 1113.94 373.097 1114.19 372.581 1114.58 371.742 1115.1 370.516 1115.55 369.419 1116 368.581 1116.39 367.871 1114.84 364.968 1114 363.806 1113.61 363.355 1113.35 363.097 1113.35 362.645 1113.55 362.387 1114.13 361.548 1116.32 359.29 1120.13 355.548 1120.39 355.29 1120.71 355.226 1121.03 355.419 1123.16 356.452 1124.9 357.419 1126.13 358.323 1129.16 357.032 1130.58 356.516 1131.29 356.323 1131.42 355.871 1131.61 355.097 1132 353.677 1132.32 352.452 1132.65 351.419 1132.84 350.581 1132.97 350.258 1133.23 350 1133.61 350L1142.65 350C1142.97 350 1143.29 350.194 1143.42 350.516 1143.74 351.355 1144.26 353.161 1145.1 356.129 1145.48 356.323 1146.26 356.581 1147.61 357.097 1148.71 357.484 1149.55 357.936 1150.19 358.323 1150.84 358.129 1151.55 357.742 1152.32 357.161 1153.61 356.387 1154.52 355.871 1155.1 355.613 1155.35 355.484 1155.61 355.548 1155.81 355.677 1156.84 356.323 1158.06 357.355 1159.42 358.839 1160.9 360.387 1162 361.419 1162.65 361.935 1162.97 362.194 1163.03 362.581 1162.84 362.968 1161.61 365.226 1160.65 366.903 1159.94 368.065 1161.1 371.355 1161.61 372.774 1161.81 373.355 1162.58 373.484 1163.55 373.677 1164.52 374 1165.87 374.387 1166.84 374.645 1167.35 374.774 1167.74 374.839 1168 375.161 1168 375.548L1168 384.71C1168 385.097 1167.74 385.419 1167.35 385.484 1167.03 385.548 1166.32 385.742 1164.65 386.258 1163.68 386.516 1162.84 386.774 1162.06 386.903 1161.87 387.355 1161.48 388.065 1160.97 389.484 1160.58 390.645 1160.13 391.484 1159.68 392.129 1159.94 392.581 1160.39 393.29 1160.9 394.258 1161.48 395.29 1162 396.065 1162.45 396.645 1162.65 396.903 1162.71 397.29 1162.45 397.613 1161.87 398.452 1159.74 400.71 1155.87 404.452 1155.61 404.71 1155.29 404.774 1154.97 404.581 1153.23 403.742 1151.55 402.774 1149.94 401.677 1148.19 402.645 1146.45 403.355 1144.84 403.678 1144.65 404.129 1144.32 404.903 1144.06 406.194 1143.68 407.807 1143.35 408.903 1143.03 409.484 1142.97 409.806 1142.65 410 1142.39 410ZM1133.87 408.387 1141.81 408.387C1142 407.936 1142.19 407.161 1142.52 405.871 1142.84 404.387 1143.23 403.29 1143.68 402.581 1143.81 402.387 1144 402.258 1144.19 402.194 1145.87 401.871 1147.68 401.161 1149.61 400.065 1149.87 399.936 1150.19 399.936 1150.45 400.065 1152 401.097 1153.61 402.065 1155.23 402.839 1158.65 399.484 1160.19 397.871 1160.84 397.097 1160.45 396.516 1160 395.871 1159.55 395.032 1158.52 393.161 1158.19 392.645 1158.06 392.452 1157.87 392.129 1157.94 391.742 1158.19 391.484 1158.52 391.161 1158.97 390.452 1159.55 388.903 1160.13 387.29 1160.58 386.258 1160.9 385.742 1161.03 385.548 1161.23 385.419 1161.48 385.355 1162.26 385.226 1163.16 385.032 1164.26 384.71 1165.16 384.452 1165.94 384.258 1166.45 384.065L1166.45 376.129C1165.87 376 1165.1 375.806 1164.13 375.484 1163.1 375.161 1162.26 374.968 1161.48 374.903 1160.71 375.097 1160.71 375.032 1158.32 368.194 1158.19 367.936 1158.19 367.677 1158.32 367.484 1158.97 366.516 1159.87 364.968 1161.1 362.774 1160.39 362.129 1159.48 361.226 1158.19 359.936 1157.1 358.774 1156.13 357.871 1155.29 357.29 1154.77 357.548 1154.06 357.936 1153.16 358.516 1152.06 359.226 1151.1 359.742 1150.19 359.936 1149.94 360 1149.68 359.936 1149.48 359.806 1148.97 359.419 1148.06 358.968 1146.97 358.516 1145.35 357.936 1144.39 357.548 1144 357.355 1143.81 357.226 1143.61 357.032 1143.55 356.839 1142.9 354.258 1142.39 352.516 1142.06 351.548L1134.26 351.548C1134.06 352.258 1133.81 353.032 1133.55 354 1133.1 355.742 1132.77 356.774 1132.71 357.161 1132.58 357.484 1132.32 357.742 1132 357.742 1131.81 357.742 1130.9 357.936 1126.39 359.936 1126.13 360.065 1125.81 360 1125.55 359.871 1124.45 359.032 1122.84 358.129 1120.84 357.097 1117.42 360.452 1115.87 362.065 1115.23 362.839 1115.94 363.742 1116.84 365.29 1118 367.548 1118.13 367.806 1118.13 368.129 1117.94 368.387 1117.55 368.968 1117.03 369.871 1116.52 371.161 1115.87 372.71 1115.42 373.677 1115.1 374.194 1114.97 374.387 1114.77 374.581 1114.52 374.581 1113.74 374.71 1112.84 374.903 1111.74 375.226 1110.77 375.484 1110.06 375.742 1109.55 375.871L1109.55 383.871C1110.13 384 1110.9 384.194 1111.87 384.516 1113.03 384.839 1114 385.032 1114.77 385.161 1115.16 385.226 1115.42 385.484 1115.48 385.871 1115.61 386.774 1115.94 387.742 1116.39 388.903 1117.42 391.097 1117.61 391.677 1117.68 391.871 1117.74 392.065 1117.74 392.323 1117.61 392.516 1116 395.355 1115.29 396.645 1115.03 397.226 1118.39 400.645 1119.94 402.065 1120.71 402.645 1121.16 402.387 1121.87 402 1122.77 401.419 1123.94 400.71 1124.9 400.258 1125.74 400 1126 399.936 1126.26 399.936 1126.45 400.129 1126.58 400.194 1127.48 400.645 1131.94 402.581 1132.13 402.645 1132.26 402.839 1132.39 403.032 1132.65 403.613 1132.9 404.645 1133.23 406.129 1133.48 407.032 1133.68 407.807 1133.87 408.387Z" fill="#4868E5" fill-rule="evenodd"/><text fill="#1D428A" font-family="Avenir Next LT Pro Light,Avenir Next LT Pro Light_MSFontService,sans-serif" font-weight="700" font-size="19" transform="translate(1090.52 440)">Orientação</text><text fill="#1D428A" font-family="Avenir Next LT Pro Light,Avenir Next LT Pro Light_MSFontService,sans-serif" font-weight="700" font-size="19" transform="translate(1102.52 462)">por APIs</text><text fill="#1D428A" font-family="Avenir Next LT Pro Light,Avenir Next LT Pro Light_MSFontService,sans-serif" font-weight="700" font-size="19" transform="translate(605.06 445)">Malha</text><text fill="#1D428A" font-family="Avenir Next LT Pro Light,Avenir Next LT Pro Light_MSFontService,sans-serif" font-weight="700" font-size="19" transform="translate(619.64 467)">de</text><text fill="#1D428A" font-family="Avenir Next LT Pro Light,Avenir Next LT Pro Light_MSFontService,sans-serif" font-weight="700" font-size="19" transform="translate(596.06 490)">Serviços</text><path d="M604.998 389.143C605.512 389.143 605.855 389.571 605.855 390 605.855 390.429 605.426 390.857 604.998 390.857 604.57 390.857 604.142 390.429 604.142 390 604.142 389.571 604.57 389.143 604.998 389.143M604.998 387C603.285 387 602 388.371 602 390 602 391.714 603.371 393 604.998 393 606.626 393 607.996 391.629 607.996 390 608.082 388.286 606.711 387 604.998 387L604.998 387Z" fill="#4868E5" fill-rule="evenodd"/><path d="M610.998 401.5C611.512 401.5 611.855 402 611.855 402.5 611.855 403 611.426 403.5 610.998 403.5 610.57 403.5 610.142 403 610.142 402.5 610.142 402 610.57 401.5 610.998 401.5M610.998 399C609.371 399 608 400.6 608 402.5 608 404.4 609.371 406 610.998 406 612.626 406 613.996 404.4 613.996 402.5 614.082 400.6 612.711 399 610.998 399L610.998 399Z" fill="#4868E5" fill-rule="evenodd"/><path d="M646 404.083C646.5 404.083 646.917 404.5 646.917 405 646.917 405.5 646.5 405.917 646 405.917 645.5 405.917 645.083 405.5 645.083 405 645.083 404.5 645.5 404.083 646 404.083M646 402C644.333 402 643 403.333 643 405 643 406.667 644.333 408 646 408 647.667 408 649 406.667 649 405 649 403.333 647.667 402 646 402L646 402Z" fill="#4868E5" fill-rule="evenodd"/><path d="M634 389.43C634.5 389.43 634.917 389.917 634.917 390.5 634.917 391.083 634.5 391.57 634 391.57 633.5 391.57 633.083 391.083 633.083 390.5 633.167 389.82 633.583 389.43 634 389.43M634 387C632.333 387 631 388.555 631 390.5 631 392.445 632.333 394 634 394 635.667 394 637 392.445 637 390.5 637 388.555 635.667 387 634 387L634 387Z" fill="#4868E5" fill-rule="evenodd"/><path d="M645.5 367.43C646.083 367.43 646.57 367.917 646.57 368.5 646.57 369.083 646.083 369.57 645.5 369.57 644.917 369.57 644.431 369.083 644.431 368.5 644.431 367.917 645.014 367.43 645.5 367.43M645.5 365C643.555 365 642 366.555 642 368.5 642 370.445 643.555 372 645.5 372 647.445 372 649 370.445 649 368.5 649 366.555 647.445 365 645.5 365L645.5 365Z" fill="#4868E5" fill-rule="evenodd"/><path d="M657.543 385C657.543 385.093 657.543 385.093 657.543 385 657.543 386.019 656.857 386.944 656 387.13L656.686 387.222C661.571 387.685 665.429 392.778 665.857 398.982 666.029 398.982 666.2 398.889 666.286 398.889 667.057 398.889 667.657 399.352 668 400 668 392.315 663.457 386.019 657.543 385Z" fill="#4868E5" fill-rule="evenodd"/><path d="M655.889 382.543C656.286 382.543 656.683 382.726 657 383 656.048 376.323 652.635 370.744 647.873 368 647.873 368.091 647.873 368.183 647.873 368.274 647.873 369.006 647.476 369.738 647 370.104 650.968 372.482 653.984 377.146 654.937 382.817 655.254 382.634 655.572 382.543 655.889 382.543Z" fill="#4868E5" fill-rule="evenodd"/><path d="M656 384.083C656.5 384.083 656.917 384.5 656.917 385 656.917 385.5 656.5 385.917 656 385.917 655.5 385.917 655.083 385.5 655.083 385 655.083 384.5 655.5 384.083 656 384.083M656 382C654.333 382 653 383.333 653 385 653 386.667 654.333 388 656 388 657.667 388 659 386.667 659 385 659 383.333 657.667 382 656 382L656 382Z" fill="#4868E5" fill-rule="evenodd"/><path d="M667 400.083C667.5 400.083 667.917 400.5 667.917 401 667.917 401.5 667.5 401.917 667 401.917 666.5 401.917 666.083 401.5 666.083 401 666.083 400.5 666.5 400.083 667 400.083M667 398C665.333 398 664 399.333 664 401 664 402.667 665.333 404 667 404 668.667 404 670 402.667 670 401 670 399.333 668.667 398 667 398L667 398Z" fill="#4868E5" fill-rule="evenodd"/><path d="M666.387 402.842C666.132 402.842 665.962 402.748 665.708 402.748 664.943 407.331 662.311 411.072 659 412.568 659.255 412.942 659.509 413.41 659.509 413.971 659.509 414.345 659.424 414.626 659.255 415 663.84 413.317 667.321 408.266 668 402 667.66 402.468 667.066 402.842 666.387 402.842Z" fill="#4868E5" fill-rule="evenodd"/><path d="M658 413.43C658.5 413.43 658.917 413.917 658.917 414.5 658.917 415.083 658.5 415.57 658 415.57 657.5 415.57 657.083 415.083 657.083 414.5 657.083 413.917 657.5 413.43 658 413.43M658 411C656.333 411 655 412.555 655 414.5 655 416.445 656.333 418 658 418 659.667 418 661 416.445 661 414.5 661 412.555 659.583 411 658 411L658 411Z" fill="#4868E5" fill-rule="evenodd"/><path d="M595 409.43C595.5 409.43 595.917 409.917 595.917 410.5 595.917 411.083 595.5 411.57 595 411.57 594.5 411.57 594.083 411.083 594.083 410.5 594.083 409.917 594.5 409.43 595 409.43M595 407C593.333 407 592 408.555 592 410.5 592 412.445 593.333 414 595 414 596.667 414 598 412.445 598 410.5 598 408.555 596.667 407 595 407L595 407Z" fill="#4868E5" fill-rule="evenodd"/><path d="M646.701 407.641 648.004 405.74 656.532 411.585 655.229 413.486Z" fill="#4868E5" fill-rule="evenodd"/><path d="M623.505 412.656 643.131 404.793 643.99 406.937 624.364 414.8Z" fill="#4868E5" fill-rule="evenodd"/><path d="M611.14 404.816 612.638 403.324 621.438 412.16 619.94 413.652Z" fill="#4868E5" fill-rule="evenodd"/><path d="M596.171 408.37 608.324 402.815 609.284 404.915 597.131 410.47Z" fill="#4868E5" fill-rule="evenodd"/><path d="M604.084 392.775 605.894 391.68 610.913 399.98 609.104 401.074Z" fill="#4868E5" fill-rule="evenodd"/><path d="M610.533 400.069 622.995 380.029 624.794 381.148 612.332 401.188Z" fill="#4868E5" fill-rule="evenodd"/><path d="M612.565 399.942 631.957 391.1 632.915 393.201 613.523 402.043Z" fill="#4868E5" fill-rule="evenodd"/><path d="M612.746 403.898 612.886 401.598 643.76 403.484 643.619 405.784Z" fill="#4868E5" fill-rule="evenodd"/><path d="M647.46 403.216 664.168 400.579 664.528 402.861 647.82 405.497Z" fill="#4868E5" fill-rule="evenodd"/><path d="M645.381 402.157 654.443 386.42 656.279 387.477 647.217 403.214Z" fill="#4868E5" fill-rule="evenodd"/><path d="M634.413 392.955 636.035 391.598 645.398 402.796 643.776 404.152Z" fill="#4868E5" fill-rule="evenodd"/><path d="M636.607 389.164 653.45 384.713 654.04 386.945 637.197 391.397Z" fill="#4868E5" fill-rule="evenodd"/><path d="M633.611 387.74 643.793 370.307 645.623 371.376 635.44 388.808Z" fill="#4868E5" fill-rule="evenodd"/><path d="M624.606 380.851 626.24 379.509 633.626 388.504 631.993 389.845Z" fill="#4868E5" fill-rule="evenodd"/><path d="M619.666 414.714C619.666 414.254 619.833 413.795 620 413.519 612.146 413.519 605.128 413.611 602.288 413.611 601.619 413.611 601.118 413.611 601.035 413.611 599.28 413.519 597.609 412.876 596.105 411.866 595.771 412.417 595.186 412.693 594.601 412.693 593.515 412.693 592.68 411.774 592.68 410.579 592.68 409.936 592.93 409.385 593.264 409.018 591.928 407.088 591.009 404.7 591.092 402.403 591.176 396.799 595.437 392.297 600.45 392.297 600.533 392.297 600.617 392.297 600.7 392.297 601.536 392.297 602.288 392.481 603.04 392.664L605.212 393.307 605.379 392.205C605.128 392.389 604.794 392.481 604.46 392.481 603.374 392.481 602.538 391.562 602.538 390.367 602.538 390.276 602.538 390.276 602.538 390.184 601.954 390.092 601.369 390 600.7 390 600.617 390 600.533 390 600.45 390 594.267 390 589.087 395.512 589.003 402.403 588.836 409.385 594.685 415.816 601.035 416 601.202 416 601.619 416 602.371 416 605.212 416 612.146 416 620 415.908 619.749 415.449 619.666 415.081 619.666 414.714Z" fill="#4868E5" fill-rule="evenodd"/><path d="M655.34 414.615C655.34 414.385 655.423 414.154 655.505 414 655.34 414 654.845 414 654.186 414 650.474 414 639.505 414 628.866 414.077 627.216 414.077 625.567 414.077 624 414.077 624.247 414.385 624.33 414.692 624.33 415.077 624.33 415.385 624.247 415.692 624.082 416 636.289 415.923 649.897 415.923 654.186 415.923 654.928 415.923 655.34 415.923 655.505 415.923 655.588 415.923 655.67 415.923 655.753 415.923 655.835 415.923 655.918 415.923 656 415.923 655.588 415.539 655.34 415.077 655.34 414.615Z" fill="#4868E5" fill-rule="evenodd"/><path d="M622 413.43C622.5 413.43 622.917 413.917 622.917 414.5 622.917 415.083 622.5 415.57 622 415.57 621.5 415.57 621.083 415.083 621.083 414.5 621.083 413.917 621.5 413.43 622 413.43M622 411C620.333 411 619 412.555 619 414.5 619 416.445 620.333 418 622 418 623.667 418 625 416.445 625 414.5 625 412.555 623.667 411 622 411L622 411Z" fill="#4868E5" fill-rule="evenodd"/><path d="M644 366.563C642.809 366.188 641.617 366 640.426 366 640.255 366 640.17 366 640 366 633.617 366 628 370.225 625.021 376.514 625.617 376.89 626.043 377.641 626.043 378.392 626.043 379.612 625.192 380.551 624.085 380.551 622.979 380.551 622.128 379.612 622.128 378.392 622.128 378.298 622.128 378.11 622.128 378.016 620.851 377.547 619.489 377.265 618.128 377.265 618.043 377.265 617.872 377.265 617.787 377.265 611.489 377.265 606.043 381.772 604 388.061 604.085 388.061 604.17 388.061 604.34 388.061 605.021 388.061 605.617 388.437 605.958 389 607.745 383.461 612.426 379.612 617.787 379.612 617.872 379.612 617.957 379.612 618.128 379.612 619.915 379.706 621.702 380.082 623.234 380.927L625.021 380.833 626.213 379.706C628.596 372.759 634.128 368.347 640.17 368.347 640.255 368.347 640.426 368.347 640.511 368.347 641.532 368.347 642.553 368.535 643.575 368.816 643.489 368.629 643.489 368.441 643.489 368.159 643.319 367.596 643.575 367.033 644 366.563Z" fill="#4868E5" fill-rule="evenodd"/><path d="M624 377.43C624.5 377.43 624.917 377.917 624.917 378.5 624.917 379.083 624.5 379.472 624 379.472 623.5 379.472 623.083 378.986 623.083 378.403 623.083 377.82 623.5 377.43 624 377.43M624 375C622.333 375 621 376.555 621 378.5 621 380.445 622.333 382 624 382 625.667 382 627 380.445 627 378.5 627 376.555 625.667 375 624 375L624 375Z" fill="#4868E5" fill-rule="evenodd"/><text fill="#172DA6" font-family="Speak Pro,Speak Pro_MSFontService,sans-serif" font-weight="700" font-size="48" transform="translate(239.056 91)">O que são Aplicativos Nativos de Nuvem?</text></g></svg>